<svg version="1.1" id="Layer_1" xmlns="http://www.w3.org/2000/svg" xmlns:xlink="http://www.w3.org/1999/xlink" x="0px" y="0px"
	 width="100%" viewBox="0 0 400 400" enable-background="new 0 0 400 400" xml:space="preserve">
<path fill="none" opacity="1.000000" stroke="#000000" stroke-linecap="round" stroke-linejoin="round" stroke-width="8.000000"
	d="
M284.500000,240.500000 
	C288.407104,228.645828 290.474884,216.360245 289.812927,204.010025 
	C288.944305,187.804672 283.840485,172.703293 273.994110,159.504395 
	C260.067017,140.835388 241.527115,129.930313 218.508499,126.443886 
	C214.504288,125.837410 210.530685,125.465057 206.500000,125.500000 
"/>
<path fill="none" opacity="1.000000" stroke="#000000" stroke-linecap="round" stroke-linejoin="round" stroke-width="8.000000"
	d="
M262.500000,130.500000 
	C254.614670,126.427361 247.271225,121.393921 238.540222,118.861320 
	C231.760376,116.894699 225.002533,115.059677 217.996597,114.546410 
	C194.424316,112.819489 173.647079,119.625427 156.007584,135.508408 
	C143.901367,146.409088 135.889252,159.852997 131.500000,175.500000 
"/>
<path fill="none" opacity="1.000000" stroke="#000000" stroke-linecap="round" stroke-linejoin="round" stroke-width="8.000000"
	d="
M110.500000,206.500000 
	C112.483643,220.315643 118.047470,232.793228 126.114952,243.916626 
	C136.211365,257.837524 149.586334,267.850250 166.001129,273.496735 
	C186.488220,280.544067 206.639084,279.060272 226.489716,270.974731 
	C228.898590,269.993530 231.166672,268.666687 233.500000,267.500000 
"/>
<path fill="none" opacity="1.000000" stroke="#000000" stroke-linecap="round" stroke-linejoin="round" stroke-width="8.000000"
	d="
M171.500000,113.500000 
	C157.538147,119.799988 146.102753,129.321884 137.069153,141.551086 
	C129.706085,151.518753 124.713440,162.733765 122.535072,175.006226 
	C119.972870,189.441086 121.084511,203.596954 125.944656,217.519318 
	C129.604782,228.004074 135.456451,237.076263 142.500000,245.500000 
"/>
<path fill="none" opacity="1.000000" stroke="#000000" stroke-linecap="round" stroke-linejoin="round" stroke-width="8.000000"
	d="
M275.500000,186.500000 
	C276.345215,192.312927 277.263641,198.086349 277.609650,203.993576 
	C278.483521,218.913971 275.278442,233.026718 268.330841,245.908768 
	C259.659668,261.986633 246.979507,274.359772 230.023590,282.052002 
	C219.161682,286.979706 207.862091,289.574158 196.000153,290.004333 
	C192.165833,290.143402 188.333328,290.333344 184.500000,290.500000 
"/>
<path fill="none" opacity="1.000000" stroke="#000000" stroke-linecap="round" stroke-linejoin="round" stroke-width="6.000000"
	d="
M258.500000,205.500000 
	C258.064819,228.099304 248.142960,245.525085 229.478287,257.967438 
	C213.781982,268.431000 196.624130,270.210388 178.470139,266.132904 
	C175.855423,265.545685 173.168442,264.990570 170.500000,264.500000 
"/>
<path fill="none" opacity="1.000000" stroke="#000000" stroke-linecap="round" stroke-linejoin="round" stroke-width="6.000000"
	d="
M195.500000,129.500000 
	C172.166687,134.227875 154.902893,146.911499 145.601166,169.042526 
	C138.038635,187.035599 139.087738,205.051819 148.056885,222.470718 
	C148.433807,223.202728 148.399307,223.816833 148.500000,224.500000 
"/>
<path fill="none" opacity="1.000000" stroke="#000000" stroke-linecap="round" stroke-linejoin="round" stroke-width="6.000000"
	d="
M256.500000,244.500000 
	C265.934204,229.798111 269.768829,213.595352 266.791931,196.536316 
	C264.105927,181.144394 256.744232,167.854706 244.032944,157.957687 
	C237.484390,152.858978 230.438095,148.891083 222.500000,146.500000 
"/>
<path fill="none" opacity="1.000000" stroke="#000000" stroke-linecap="round" stroke-linejoin="round" stroke-width="6.000000"
	d="
M257.500000,157.500000 
	C247.443985,146.908661 235.537354,139.460861 220.991959,137.048523 
	C196.954819,133.061935 176.547928,139.700302 160.474121,158.477844 
	C158.291550,161.027512 155.808273,163.314545 154.500000,166.500000 
"/>
<path fill="none" opacity="1.000000" stroke="#000000" stroke-linecap="round" stroke-linejoin="round" stroke-width="6.000000"
	d="
M131.500000,186.500000 
	C130.340256,198.867371 132.076385,210.907104 137.602081,221.948914 
	C148.955399,244.635941 167.086990,257.401031 192.991943,258.665161 
	C198.979584,258.957336 204.676514,258.005646 210.500000,257.500000 
"/>
<path fill="none" opacity="1.000000" stroke="#000000" stroke-linecap="round" stroke-linejoin="round" stroke-width="5.000000"
	d="
M210.500000,145.500000 
	C194.184082,144.773544 179.557159,148.896713 168.035522,161.033722 
	C157.292648,172.350357 152.624405,185.869675 154.479355,201.502457 
	C154.635376,202.817261 154.500000,204.166672 154.500000,205.500000 
"/>
<path fill="none" opacity="1.000000" stroke="#000000" stroke-linecap="round" stroke-linejoin="round" stroke-width="5.000000"
	d="
M148.500000,179.500000 
	C147.790756,185.983902 146.142700,192.269226 146.816040,199.018356 
	C147.627899,207.155930 149.747787,214.783997 154.117615,221.422577 
	C162.023300,233.432770 172.612411,241.959534 187.487747,244.085770 
	C190.485580,244.514282 193.364594,245.812439 196.500000,245.500000 
"/>
<path fill="none" opacity="1.000000" stroke="#000000" stroke-linecap="round" stroke-linejoin="round" stroke-width="5.000000"
	d="
M241.500000,218.500000 
	C232.028870,246.563950 200.662628,259.964539 173.001160,247.497421 
	C170.825684,246.516953 168.666672,245.500000 166.500000,244.500000 
"/>
<path fill="none" opacity="1.000000" stroke="#000000" stroke-linecap="round" stroke-linejoin="round" stroke-width="5.000000"
	d="
M251.500000,179.500000 
	C246.397293,170.149612 239.327484,162.746475 230.006744,157.488052 
	C212.564865,147.647934 189.943329,149.957840 174.500000,162.500000 
"/>
<path fill="none" opacity="1.000000" stroke="#000000" stroke-linecap="round" stroke-linejoin="round" stroke-width="5.000000"
	d="
M229.500000,165.500000 
	C239.954681,173.182724 246.889526,183.200241 249.485703,196.002899 
	C253.070450,213.680664 247.672058,228.771515 236.000000,242.000000 
"/>
<path fill="none" opacity="1.000000" stroke="#000000" stroke-linecap="round" stroke-linejoin="round" stroke-width="4.000000"
	d="
M242.500000,196.500000 
	C239.596237,179.950684 226.239746,166.672287 210.029221,164.300293 
	C201.917084,163.113297 194.864883,165.486588 187.500000,167.500000 
"/>
<path fill="none" opacity="1.000000" stroke="#000000" stroke-linecap="round" stroke-linejoin="round" stroke-width="4.000000"
	d="
M226.500000,222.500000 
	C220.402802,231.619675 211.634277,236.531204 200.991623,237.936539 
	C189.057236,239.512451 178.477142,236.137177 169.495163,228.005341 
	C168.531006,227.132416 167.500000,226.333344 166.500000,225.500000 
"/>
<path fill="none" opacity="1.000000" stroke="#000000" stroke-linecap="round" stroke-linejoin="round" stroke-width="4.000000"
	d="
M215.500000,160.500000 
	C207.417938,158.863892 199.440536,158.693665 191.489273,161.469269 
	C176.799149,166.597198 166.227844,181.746735 166.500000,195.500000 
"/>
<path fill="none" opacity="1.000000" stroke="#000000" stroke-linecap="round" stroke-linejoin="round" stroke-width="4.000000"
	d="
M229.500000,180.500000 
	C237.427277,192.106216 239.973495,204.468246 235.023682,218.008652 
	C231.892532,226.574020 226.375122,233.009720 218.500000,237.500000 
"/>
<path fill="none" opacity="1.000000" stroke="#000000" stroke-linecap="round" stroke-linejoin="round" stroke-width="4.000000"
	d="
M165.500000,176.500000 
	C159.600296,189.000000 159.125946,201.599579 165.569199,213.963943 
	C169.659607,221.813339 176.073517,227.410294 184.500000,230.500000 
"/>
<path fill="none" opacity="1.000000" stroke="#000000" stroke-linecap="round" stroke-linejoin="round" stroke-width="3.000000"
	d="
M195.000000,189.500000 
	C198.172791,194.181015 197.648438,199.942490 199.528259,204.989471 
	C200.946350,208.796844 200.063919,213.398056 203.500000,216.500000 
"/>
<path fill="none" opacity="1.000000" stroke="#000000" stroke-linecap="round" stroke-linejoin="round" stroke-width="3.000000"
	d="
M194.500000,181.500000 
	C194.142075,189.677841 191.191254,197.122894 188.000000,204.500000 
"/>
<path fill="none" opacity="1.000000" stroke="#000000" stroke-linecap="round" stroke-linejoin="round" stroke-width="4.000000"
	d="
M236.000000,199.000000 
	C229.862000,200.227417 223.658508,199.031494 217.759354,199.583511 
	C215.621216,202.929062 214.545410,206.540619 215.000000,210.500000 
"/>
<path fill="none" opacity="1.000000" stroke="#000000" stroke-linecap="round" stroke-linejoin="round" stroke-width="4.000000"
	d="
M183.000000,197.500000 
	C180.203369,202.500000 180.201248,202.399734 173.500870,202.541077 
	C170.002640,202.614883 166.455353,201.895599 163.000000,203.000000 
"/>
<path fill="none" opacity="1.000000" stroke="#000000" stroke-linecap="round" stroke-linejoin="round" stroke-width="3.000000"
	d="
M210.000000,196.500000 
	C206.723709,200.967117 207.023438,206.514709 205.623505,211.534439 
	C204.634552,215.080566 201.873032,218.416306 203.500000,222.500000 
"/>
<path fill="none" opacity="1.000000" stroke="#000000" stroke-linecap="round" stroke-linejoin="round" stroke-width="4.000000"
	d="
M183.500000,191.500000 
	C182.875397,195.609741 185.107254,198.994720 186.608429,202.452927 
	C187.770279,205.129425 188.097244,207.721344 188.000000,210.500000 
"/>
<path fill="none" opacity="1.000000" stroke="#000000" stroke-linecap="round" stroke-linejoin="round" stroke-width="3.000000"
	d="
M211.000000,196.500000 
	C213.735687,198.465485 211.530396,202.901474 215.000000,204.500000 
"/>
</svg>